<svg class="main-svg" xmlns="http://www.w3.org/2000/svg" xmlns:xlink="http://www.w3.org/1999/xlink" width="700" height="500" style="" viewBox="0 0 700 500"><rect x="0" y="0" width="700" height="500" style="fill: rgb(7, 10, 45); fill-opacity: 1;"/><defs id="defs-2523fc"><g class="clips"><clipPath id="clip2523fcxyplot" class="plotclip"><rect width="569" height="225.6376"/></clipPath><clipPath id="clip2523fcx2y2plot" class="plotclip"><rect width="569" height="106.1824"/></clipPath><clipPath class="axesclip" id="clip2523fcx"><rect x="91" y="0" width="569" height="500"/></clipPath><clipPath class="axesclip" id="clip2523fcy"><rect x="0" y="80" width="700" height="225.6376"/></clipPath><clipPath class="axesclip" id="clip2523fcxy"><rect x="91" y="80" width="569" height="225.6376"/></clipPath><clipPath class="axesclip" id="clip2523fcy2"><rect x="0" y="326.8176" width="700" height="106.1824"/></clipPath><clipPath class="axesclip" id="clip2523fcxy2"><rect x="91" y="326.8176" width="569" height="106.1824"/></clipPath><clipPath class="axesclip" id="clip2523fcx2"><rect x="91" y="0" width="569" height="500"/></clipPath><clipPath class="axesclip" id="clip2523fcx2y"><rect x="91" y="80" width="569" height="225.6376"/></clipPath><clipPath class="axesclip" id="clip2523fcx2y2"><rect x="91" y="326.8176" width="569" height="106.1824"/></clipPath></g><g class="gradients"/><g class="patterns"/></defs><g class="bglayer"/><g class="layer-below"><g class="imagelayer"/><g class="shapelayer"/></g><g class="cartesianlayer"><g class="subplot xy"><g class="layer-subplot"><g class="shapelayer"/><g class="imagelayer"/></g><g class="minor-gridlayer"><g class="x"/><g class="y"/></g><g class="gridlayer"><g class="x"><path class="xgrid crisp" transform="translate(182.76999999999998,0)" d="M0,80v225.6376" style="stroke: rgb(255, 255, 255); stroke-opacity: 0.12; stroke-width: 0.8px;"/><path class="xgrid crisp" transform="translate(311.26,0)" d="M0,80v225.6376" style="stroke: rgb(255, 255, 255); stroke-opacity: 0.12; stroke-width: 0.8px;"/><path class="xgrid crisp" transform="translate(439.74,0)" d="M0,80v225.6376" style="stroke: rgb(255, 255, 255); stroke-opacity: 0.12; stroke-width: 0.8px;"/><path class="xgrid crisp" transform="translate(568.23,0)" d="M0,80v225.6376" style="stroke: rgb(255, 255, 255); stroke-opacity: 0.12; stroke-width: 0.8px;"/></g><g class="y"><path class="ygrid crisp" transform="translate(0,295.27)" d="M91,0h569" style="stroke: rgb(255, 255, 255); stroke-opacity: 0.12; stroke-width: 0.8px;"/><path class="ygrid crisp" transform="translate(0,259.39)" d="M91,0h569" style="stroke: rgb(255, 255, 255); stroke-opacity: 0.12; stroke-width: 0.8px;"/><path class="ygrid crisp" transform="translate(0,223.52)" d="M91,0h569" style="stroke: rgb(255, 255, 255); stroke-opacity: 0.12; stroke-width: 0.8px;"/><path class="ygrid crisp" transform="translate(0,187.64)" d="M91,0h569" style="stroke: rgb(255, 255, 255); stroke-opacity: 0.12; stroke-width: 0.8px;"/><path class="ygrid crisp" transform="translate(0,151.76999999999998)" d="M91,0h569" style="stroke: rgb(255, 255, 255); stroke-opacity: 0.12; stroke-width: 0.8px;"/><path class="ygrid crisp" transform="translate(0,115.89)" d="M91,0h569" style="stroke: rgb(255, 255, 255); stroke-opacity: 0.12; stroke-width: 0.8px;"/></g></g><g class="zerolinelayer"/><g class="layer-between"><g class="shapelayer"/><g class="imagelayer"/></g><path class="xlines-below"/><path class="ylines-below"/><g class="overlines-below"/><g class="xaxislayer-below"/><g class="yaxislayer-below"/><g class="overaxes-below"/><g class="overplot"><g class="xy" transform="translate(91,80)" clip-path="url(#clip2523fcxyplot)"><g class="scatterlayer mlayer"><g class="trace scatter trace021c84" style="stroke-miterlimit: 2; opacity: 1;"><g class="fills"/><g class="errorbars"/><g class="lines"><path class="js-line" d="M0,109.43L9.18,124.08L36.71,112.37L45.89,106.05L55.06,131.41L64.24,181.89L73.42,207.17L100.95,192.64L110.13,197.94L119.31,171.23L128.48,193.04L137.66,214.36L165.19,201.64L174.37,184.75L183.55,152.32L192.73,157.14L238.61,157.59L247.79,107.72L256.97,91.55L266.15,83.43L293.68,82.7L302.85,71.08L312.03,84.65L321.21,88.37L330.39,79.62L357.92,78.51L367.1,92.92L376.27,75.95L385.45,81.69L394.63,87.32L422.16,110.66L431.34,127.92L440.52,109.98L449.69,78.97L486.4,79.55L495.58,71.57L504.76,44.91L513.94,70.99L523.11,75.43L550.65,76.33L559.82,112.5L569,77.81" style="vector-effect: none; fill: none; stroke: rgb(79, 130, 255); stroke-opacity: 1; stroke-width: 2.7px; opacity: 1;"/></g><g class="points"/><g class="text"/></g><g class="trace scatter trace8146c3" style="stroke-miterlimit: 2; opacity: 1;"><g class="fills"/><g class="errorbars"/><g class="lines"><path class="js-line" d="M0,107.64L9.18,117.71L36.71,110.73L45.89,101.29L55.06,111.4L64.24,149.78L73.42,184.9L100.95,162.11L110.13,159.94L119.31,138.71L128.48,164.73L137.66,183.49L165.19,172.26L174.37,163.54L183.55,112.69L192.73,125.13L238.61,143.73L247.79,56.32L256.97,61.65L266.15,52.34L293.68,58.93L302.85,34.12L312.03,47.9L321.21,50.11L330.39,11.28L357.92,34.71L367.1,51.05L376.27,58.55L385.45,62.14L394.63,65.65L422.16,72.87L431.34,80.43L440.52,86.55L449.69,66.26L486.4,103.05L495.58,69.97L504.76,20.82L513.94,37.82L523.11,56.89L550.65,61.91L559.82,89.06L569,72.64" style="vector-effect: none; fill: none; stroke: rgb(255, 184, 77); stroke-opacity: 1; stroke-width: 2.7px; opacity: 1;"/></g><g class="points"/><g class="text"/></g></g></g></g><g class="zerolinelayer-above"/><path class="xlines-above crisp" d="M90,306.1376H660" style="fill: none; stroke-width: 1px; stroke: rgb(109, 115, 156); stroke-opacity: 1;"/><path class="ylines-above crisp" d="M90.5,80V305.6376" style="fill: none; stroke-width: 1px; stroke: rgb(109, 115, 156); stroke-opacity: 1;"/><g class="overlines-above"/><g class="xaxislayer-above"/><g class="yaxislayer-above"><g class="ytick"><text text-anchor="end" x="87.8" y="3.8499999999999996" transform="translate(0,295.27)" style="font-family: 'Open Sans', verdana, arial, sans-serif; font-size: 11px; fill: rgb(255, 255, 255); fill-opacity: 1; white-space: pre;">9.40 M€</text></g><g class="ytick"><text text-anchor="end" x="87.8" y="3.8499999999999996" style="font-family: 'Open Sans', verdana, arial, sans-serif; font-size: 11px; fill: rgb(255, 255, 255); fill-opacity: 1; white-space: pre;" transform="translate(0,259.39)">9.60 M€</text></g><g class="ytick"><text text-anchor="end" x="87.8" y="3.8499999999999996" style="font-family: 'Open Sans', verdana, arial, sans-serif; font-size: 11px; fill: rgb(255, 255, 255); fill-opacity: 1; white-space: pre;" transform="translate(0,223.52)">9.80 M€</text></g><g class="ytick"><text text-anchor="end" x="87.8" y="3.8499999999999996" style="font-family: 'Open Sans', verdana, arial, sans-serif; font-size: 11px; fill: rgb(255, 255, 255); fill-opacity: 1; white-space: pre;" transform="translate(0,187.64)">10.00 M€</text></g><g class="ytick"><text text-anchor="end" x="87.8" y="3.8499999999999996" style="font-family: 'Open Sans', verdana, arial, sans-serif; font-size: 11px; fill: rgb(255, 255, 255); fill-opacity: 1; white-space: pre;" transform="translate(0,151.76999999999998)">10.20 M€</text></g><g class="ytick"><text text-anchor="end" x="87.8" y="3.8499999999999996" style="font-family: 'Open Sans', verdana, arial, sans-serif; font-size: 11px; fill: rgb(255, 255, 255); fill-opacity: 1; white-space: pre;" transform="translate(0,115.89)">10.40 M€</text></g><g class="ytick"><text text-anchor="end" x="87.8" y="3.8499999999999996" style="font-family: 'Open Sans', verdana, arial, sans-serif; font-size: 11px; fill: rgb(255, 255, 255); fill-opacity: 1; white-space: pre;" transform="translate(0,80.01)">10.60 M€</text></g></g><g class="overaxes-above"/></g><g class="subplot x2y2"><g class="layer-subplot"><g class="shapelayer"/><g class="imagelayer"/></g><g class="minor-gridlayer"><g class="x2"/><g class="y2"/></g><g class="gridlayer"><g class="x2"><path class="x2grid crisp" transform="translate(182.76999999999998,0)" d="M0,326.8176v106.1824" style="stroke: rgb(255, 255, 255); stroke-opacity: 0.12; stroke-width: 0.8px;"/><path class="x2grid crisp" transform="translate(311.26,0)" d="M0,326.8176v106.1824" style="stroke: rgb(255, 255, 255); stroke-opacity: 0.12; stroke-width: 0.8px;"/><path class="x2grid crisp" transform="translate(439.74,0)" d="M0,326.8176v106.1824" style="stroke: rgb(255, 255, 255); stroke-opacity: 0.12; stroke-width: 0.8px;"/><path class="x2grid crisp" transform="translate(568.23,0)" d="M0,326.8176v106.1824" style="stroke: rgb(255, 255, 255); stroke-opacity: 0.12; stroke-width: 0.8px;"/></g><g class="y2"><path class="y2grid crisp" transform="translate(0,419.24760000000003)" d="M91,0h569" style="stroke: rgb(255, 255, 255); stroke-opacity: 0.12; stroke-width: 0.8px;"/><path class="y2grid crisp" transform="translate(0,389.9076)" d="M91,0h569" style="stroke: rgb(255, 255, 255); stroke-opacity: 0.12; stroke-width: 0.8px;"/><path class="y2grid crisp" transform="translate(0,360.5676)" d="M91,0h569" style="stroke: rgb(255, 255, 255); stroke-opacity: 0.12; stroke-width: 0.8px;"/></g></g><g class="zerolinelayer"><path class="y2zl zl crisp" transform="translate(0,331.2176)" d="M91,0h569" style="stroke: rgb(255, 255, 255); stroke-opacity: 1; stroke-width: 2px;"/></g><g class="layer-between"><g class="shapelayer"/><g class="imagelayer"/></g><path class="xlines-below"/><path class="ylines-below"/><g class="overlines-below"/><g class="xaxislayer-below"/><g class="yaxislayer-below"/><g class="overaxes-below"/><g class="overplot"><g class="x2y2" transform="translate(91,326.8176)" clip-path="url(#clip2523fcx2y2plot)"><g class="scatterlayer mlayer"><g class="trace scatter traceb40e61" style="stroke-miterlimit: 2;"><g class="fills"><g><path class="js-fill" d="M569,4.4L0,4.4L0,4.4L9.18,16.39L36.71,6.81L45.89,4.4L55.06,25.12L64.24,66.37L73.42,87.03L100.95,75.16L110.13,79.49L119.31,57.67L128.48,75.49L137.66,92.91L165.19,82.51L174.37,68.72L183.55,42.21L192.73,46.15L238.61,46.52L247.79,5.76L256.97,4.4L302.85,4.4L312.03,15.28L321.21,18.26L330.39,11.25L357.92,10.36L367.1,21.91L376.27,8.3L385.45,12.9L394.63,17.42L422.16,36.13L431.34,49.97L440.52,35.58L449.69,10.73L486.4,11.19L495.58,4.79L504.76,4.4L513.94,25.01L523.11,28.52L550.65,29.23L559.82,57.81L569,30.4" style="fill: rgb(255, 59, 48); fill-opacity: 0.28; stroke-width: 0;"/></g></g><g class="errorbars"/><g class="lines"><path class="js-line" d="M0,4.4L9.18,16.39L36.71,6.81L45.89,4.4L55.06,25.12L64.24,66.37L73.42,87.03L100.95,75.16L110.13,79.49L119.31,57.67L128.48,75.49L137.66,92.91L165.19,82.51L174.37,68.72L183.55,42.21L192.73,46.15L238.61,46.52L247.79,5.76L256.97,4.4L302.85,4.4L312.03,15.28L321.21,18.26L330.39,11.25L357.92,10.36L367.1,21.91L376.27,8.3L385.45,12.9L394.63,17.42L422.16,36.13L431.34,49.97L440.52,35.58L449.69,10.73L486.4,11.19L495.58,4.79L504.76,4.4L513.94,25.01L523.11,28.52L550.65,29.23L559.82,57.81L569,30.4" style="vector-effect: none; fill: none; stroke: rgb(79, 130, 255); stroke-opacity: 1; stroke-width: 2px; opacity: 1;"/></g><g class="points"/><g class="text"/></g><g class="trace scatter trace1a2850" style="stroke-miterlimit: 2; opacity: 1;"><g class="fills"/><g class="errorbars"/><g class="lines"><path class="js-line" d="M0,4.4L9.18,12.64L36.71,6.92L45.89,4.4L55.06,12.64L64.24,43.93L73.42,72.55L100.95,53.97L110.13,52.2L119.31,34.9L128.48,56.11L137.66,71.4L165.19,62.25L174.37,55.14L183.55,13.69L192.73,23.83L238.61,39L247.79,4.4L256.97,8.64L266.15,4.4L293.68,9.62L302.85,4.4L312.03,15.23L321.21,16.96L330.39,4.4L357.92,22.59L367.1,35.27L376.27,41.09L385.45,43.88L394.63,46.6L422.16,52.21L431.34,58.08L440.52,62.83L449.69,47.08L486.4,75.63L495.58,49.96L504.76,11.81L513.94,25L523.11,39.81L550.65,43.7L559.82,64.77L569,52.03" style="vector-effect: none; fill: none; stroke: rgb(255, 184, 77); stroke-opacity: 1; stroke-width: 2px; opacity: 1;"/></g><g class="points"/><g class="text"/></g></g></g></g><g class="zerolinelayer-above"/><path class="xlines-above crisp" d="M90,433.5H660" style="fill: none; stroke-width: 1px; stroke: rgb(109, 115, 156); stroke-opacity: 1;"/><path class="ylines-above crisp" d="M90.5,326.8176V433" style="fill: none; stroke-width: 1px; stroke: rgb(109, 115, 156); stroke-opacity: 1;"/><g class="overlines-above"/><g class="xaxislayer-above"><g class="x2tick"><text text-anchor="middle" x="0" y="447.2" transform="translate(182.76999999999998,0)" style="font-family: 'Open Sans', verdana, arial, sans-serif; font-size: 11px; fill: rgb(255, 255, 255); fill-opacity: 1; white-space: pre;"><tspan class="line" dy="0em" x="0" y="447.2">Mar 22</tspan><tspan class="line" dy="1.3em" x="0" y="447.2">2026</tspan></text></g><g class="x2tick"><text text-anchor="middle" x="0" y="447.2" style="font-family: 'Open Sans', verdana, arial, sans-serif; font-size: 11px; fill: rgb(255, 255, 255); fill-opacity: 1; white-space: pre;" transform="translate(311.26,0)">Apr 5</text></g><g class="x2tick"><text text-anchor="middle" x="0" y="447.2" style="font-family: 'Open Sans', verdana, arial, sans-serif; font-size: 11px; fill: rgb(255, 255, 255); fill-opacity: 1; white-space: pre;" transform="translate(439.74,0)">Apr 19</text></g><g class="x2tick"><text text-anchor="middle" x="0" y="447.2" style="font-family: 'Open Sans', verdana, arial, sans-serif; font-size: 11px; fill: rgb(255, 255, 255); fill-opacity: 1; white-space: pre;" transform="translate(568.23,0)">May 3</text></g></g><g class="yaxislayer-above"><g class="y2tick"><text text-anchor="end" x="87.8" y="3.8499999999999996" transform="translate(0,419.24760000000003)" style="font-family: 'Open Sans', verdana, arial, sans-serif; font-size: 11px; fill: rgb(255, 255, 255); fill-opacity: 1; white-space: pre;">−6%</text></g><g class="y2tick"><text text-anchor="end" x="87.8" y="3.8499999999999996" style="font-family: 'Open Sans', verdana, arial, sans-serif; font-size: 11px; fill: rgb(255, 255, 255); fill-opacity: 1; white-space: pre;" transform="translate(0,389.9076)">−4%</text></g><g class="y2tick"><text text-anchor="end" x="87.8" y="3.8499999999999996" style="font-family: 'Open Sans', verdana, arial, sans-serif; font-size: 11px; fill: rgb(255, 255, 255); fill-opacity: 1; white-space: pre;" transform="translate(0,360.5676)">−2%</text></g><g class="y2tick"><text text-anchor="end" x="87.8" y="3.8499999999999996" style="font-family: 'Open Sans', verdana, arial, sans-serif; font-size: 11px; fill: rgb(255, 255, 255); fill-opacity: 1; white-space: pre;" transform="translate(0,331.2176)">0%</text></g></g><g class="overaxes-above"/></g></g><g class="polarlayer"/><g class="smithlayer"/><g class="ternarylayer"/><g class="geolayer"/><g class="funnelarealayer"/><g class="pielayer"/><g class="iciclelayer"/><g class="treemaplayer"/><g class="sunburstlayer"/><g class="glimages"/><defs id="topdefs-2523fc"><g class="clips"/><clipPath id="legend2523fc"><rect width="563" height="29" x="1" y="1"/></clipPath></defs><g class="layer-above"><g class="imagelayer"/><g class="shapelayer"><g class="shape-group" data-index="0" clip-path="url(#clip2523fcy)"><path data-index="0" fill-rule="evenodd" d="M91,189.43L660,189.43" style="opacity: 0.35; stroke: rgb(255, 255, 255); stroke-opacity: 1; fill: rgb(0, 0, 0); fill-opacity: 0; stroke-dasharray: 9px, 9px; stroke-width: 1px;"/></g><g class="shape-group" data-index="1" clip-path="url(#clip2523fcy2)"><path data-index="1" fill-rule="evenodd" d="M91,331.2176L660,331.2176" style="opacity: 0.65; stroke: rgb(255, 255, 255); stroke-opacity: 1; fill: rgb(0, 0, 0); fill-opacity: 0; stroke-width: 1px;"/></g></g></g><g class="infolayer"><g class="legend" pointer-events="all" transform="translate(95,41.94)"><rect class="bg" shape-rendering="crispEdges" style="stroke: rgb(77, 90, 160); stroke-opacity: 1; fill: rgb(16, 21, 69); fill-opacity: 0.82; stroke-width: 1px;" width="564" height="30" x="0.5" y="0.5"/><g class="scrollbox" transform="" clip-path="url(#legend2523fc)"><g class="groups"><g class="traces" transform="translate(1,15.5)" style="opacity: 1;"><text class="legendtext" text-anchor="start" x="40" y="4.29" style="font-family: 'Open Sans', verdana, arial, sans-serif; font-size: 11px; fill: rgb(255, 255, 255); fill-opacity: 1; white-space: pre;">Estrategia real</text><g class="layers" style="opacity: 1;"><g class="legendfill"/><g class="legendlines"><path class="js-line" d="M5,0h30" style="fill: none; stroke: rgb(79, 130, 255); stroke-opacity: 1; stroke-width: 2.7px;"/></g><g class="legendsymbols"><g class="legendpoints"/></g></g><rect class="legendtoggle" x="0" y="-9.5" width="122.734375" height="19" style="fill: rgb(0, 0, 0); fill-opacity: 0;"/></g><g class="traces" transform="translate(126.234375,15.5)" style="opacity: 1;"><text class="legendtext" text-anchor="start" x="40" y="4.29" style="font-family: 'Open Sans', verdana, arial, sans-serif; font-size: 11px; fill: rgb(255, 255, 255); fill-opacity: 1; white-space: pre;">STOXX 50</text><g class="layers" style="opacity: 1;"><g class="legendfill"/><g class="legendlines"><path class="js-line" d="M5,0h30" style="fill: none; stroke: rgb(255, 184, 77); stroke-opacity: 1; stroke-width: 2.7px;"/></g><g class="legendsymbols"><g class="legendpoints"/></g></g><rect class="legendtoggle" x="0" y="-9.5" width="98.0654296875" height="19" style="fill: rgb(0, 0, 0); fill-opacity: 0;"/></g><g class="traces" transform="translate(226.7998046875,15.5)" style="opacity: 1;"><text class="legendtext" text-anchor="start" x="40" y="4.29" style="font-family: 'Open Sans', verdana, arial, sans-serif; font-size: 11px; fill: rgb(255, 255, 255); fill-opacity: 1; white-space: pre;">Estrategia real (-6.03%)</text><g class="layers"><g class="legendfill"><path class="js-fill" d="M5,-2h30v6h-30z" style="stroke-width: 0; fill: rgb(255, 59, 48); fill-opacity: 0.28;"/></g><g class="legendlines"><path class="js-line" d="M5,-2h30" style="fill: none; stroke: rgb(79, 130, 255); stroke-opacity: 1; stroke-width: 2px;"/></g><g class="legendsymbols"><g class="legendpoints"/></g></g><rect class="legendtoggle" x="0" y="-9.5" width="178.41015625" height="19" style="fill: rgb(0, 0, 0); fill-opacity: 0;"/></g><g class="traces" transform="translate(407.7099609375,15.5)" style="opacity: 1;"><text class="legendtext" text-anchor="start" x="40" y="4.29" style="font-family: 'Open Sans', verdana, arial, sans-serif; font-size: 11px; fill: rgb(255, 255, 255); fill-opacity: 1; white-space: pre;">STOXX 50 (-4.85%)</text><g class="layers" style="opacity: 1;"><g class="legendfill"/><g class="legendlines"><path class="js-line" d="M5,0h30" style="fill: none; stroke: rgb(255, 184, 77); stroke-opacity: 1; stroke-width: 2px;"/></g><g class="legendsymbols"><g class="legendpoints"/></g></g><rect class="legendtoggle" x="0" y="-9.5" width="153.734375" height="19" style="fill: rgb(0, 0, 0); fill-opacity: 0;"/></g></g></g><rect class="scrollbar" rx="20" ry="3" width="0" height="0" style="fill: rgb(128, 139, 164); fill-opacity: 1;" x="0" y="0"/></g><g class="g-gtitle"/><g class="g-xtitle"/><g class="g-x2title"><text class="x2title" x="375.5" y="487.1" text-anchor="middle" style="opacity: 1; font-family: 'Open Sans', verdana, arial, sans-serif; font-size: 13px; fill: rgb(255, 255, 255); fill-opacity: 1; white-space: pre;">Fecha</text></g><g class="g-ytitle"><text class="ytitle" transform="rotate(-90,16.640429687500003,192.8188)" x="16.640429687500003" y="192.8188" text-anchor="middle" style="opacity: 1; font-family: 'Open Sans', verdana, arial, sans-serif; font-size: 13px; fill: rgb(255, 255, 255); fill-opacity: 1; white-space: pre;">Valor cartera</text></g><g class="g-y2title"><text class="y2title" transform="rotate(-90,40.9060546875,379.90880000000004)" x="40.9060546875" y="379.90880000000004" text-anchor="middle" style="opacity: 1; font-family: 'Open Sans', verdana, arial, sans-serif; font-size: 13px; fill: rgb(255, 255, 255); fill-opacity: 1; white-space: pre;">Drawdown</text></g></g></svg>